<?xml version="1.0" encoding="utf-8"?>
<!-- Generator: Adobe Illustrator 17.1.0, SVG Export Plug-In . SVG Version: 6.00 Build 0)  -->
<!DOCTYPE svg PUBLIC "-//W3C//DTD SVG 1.1//EN" "http://www.w3.org/Graphics/SVG/1.1/DTD/svg11.dtd">
<svg version="1.1" xmlns="http://www.w3.org/2000/svg" xmlns:xlink="http://www.w3.org/1999/xlink" x="0px" y="0px"
	 viewBox="0 0 267 162.6" enable-background="new 0 0 267 162.6" xml:space="preserve">
<g id="ym" display="none">
	<path display="inline" d="M64.1,25.8v2.1H52.3l30.6,52.3l27.6-52.3h-13v-2.1h28.6v2.1H113l-29,55v47.6H98v2.1H48.5v-2.1h13.8V88.7
		L27.5,27.9H15.8v-2.1L64.1,25.8L64.1,25.8z"/>
	<path display="inline" d="M153.3,25.8l25.9,74.7h0.3L206,25.8h37.5v2.1h-13.8v102.6h13.8v2.1h-49.2v-2.1h13.6V27.9h-0.3
		l-36.9,104.7h-2.4L131.3,27.9H131v102.6h13.8v2.1h-30v-2.1h13.8V27.9h-13.8v-2.1C114.8,25.8,153.3,25.8,153.3,25.8z"/>
</g>
<g id="Layer_2">
	<polygon points="84.1,83 82.9,80.3 52.3,27.9 64.1,27.9 64.1,25.8 64.1,25.8 15.8,25.8 15.8,27.9 27.5,27.9 62.3,88.7 62.3,130.5 
		48.5,130.5 48.5,132.6 98,132.6 98,130.5 84.1,130.5 	"/>
	<g>
		<polygon points="179.3,100.5 153.3,25.8 114.8,25.8 114.8,27.9 128.6,27.9 131,27.9 131.3,27.9 168.3,132.6 170.7,132.6 
			180.6,104.5 		"/>
		<polygon points="243.5,27.9 243.5,25.8 207.9,25.8 207.9,27.9 207.9,130.5 194.3,130.5 194.3,132.6 243.5,132.6 243.5,130.5 
			229.7,130.5 229.7,27.9 		"/>
	</g>
</g>
<g id="Layer_3">
	<path d="M82.9,80.3l27.6-52.3h-13v-2.1h28.6v2.1H113l-29,55L82.9,80.3z"/>
	<path d="M131,27.9v102.6h13.8v2.1h-30v-2.1h13.8V27.9H131z"/>
	<polygon points="180.6,104.5 179.3,100.5 179.6,100.5 206,25.8 207.9,25.8 207.9,27.9 207.6,27.9 	"/>
</g>
</svg>
