<?xml version="1.0" encoding="utf-8"?>
<!-- Generator: Adobe Illustrator 16.0.0, SVG Export Plug-In . SVG Version: 6.00 Build 0)  -->
<!DOCTYPE svg PUBLIC "-//W3C//DTD SVG 1.1//EN" "http://www.w3.org/Graphics/SVG/1.1/DTD/svg11.dtd">
<svg version="1.1" id="ym" xmlns="http://www.w3.org/2000/svg" xmlns:xlink="http://www.w3.org/1999/xlink" x="0px" y="0px"
	 width="266.957px" height="162.608px" viewBox="0 0 266.957 162.608" enable-background="new 0 0 266.957 162.608"
	 xml:space="preserve">
<path class="" d="M64.125,25.813v2.1h-11.85l30.6,52.35l27.6-52.35H97.426v-2.1h28.649v2.1h-13.05l-28.95,55.05v47.55h13.95v2.101h-49.5
	v-2.101h13.8V88.662l-34.8-60.75h-11.7v-2.1H64.125z"/>
<path class="" d="M153.307,25.813l25.948,74.7h0.301l26.398-74.7h37.5v2.1h-13.799v102.6h13.799v2.101h-49.199v-2.101h13.65v-102.6h-0.301
	l-36.9,104.701h-2.398l-37.05-104.701h-0.301v102.6h13.801v2.101h-30v-2.101h13.8v-102.6h-13.8v-2.1H153.307z"/>
</svg>
