<?xml version="1.0" encoding="utf-8"?>
<!-- Generator: Adobe Illustrator 16.0.0, SVG Export Plug-In . SVG Version: 6.00 Build 0)  -->
<!DOCTYPE svg PUBLIC "-//W3C//DTD SVG 1.1//EN" "http://www.w3.org/Graphics/SVG/1.1/DTD/svg11.dtd">
<svg version="1.1" xmlns="http://www.w3.org/2000/svg" xmlns:xlink="http://www.w3.org/1999/xlink" x="0px" y="0px" width="1280px"
	 height="720px" viewBox="0 0 1280 720" enable-background="new 0 0 1280 720" xml:space="preserve">
<g id="Calque_1">
	<g id="base">
		<polygon points="421.255,367.527 415.941,355.572 280.443,123.542 332.694,123.542 332.694,114.244 332.694,114.244 
			118.819,114.244 118.819,123.542 170.627,123.542 324.723,392.768 324.723,577.859 263.616,577.859 263.616,587.158 
			482.805,587.158 482.805,577.859 421.255,577.859 		"/>
		<g>
			<polygon points="842.805,445.019 727.676,114.244 557.195,114.244 557.195,123.542 618.303,123.542 628.93,123.542 
				630.258,123.542 794.096,587.158 804.724,587.158 848.561,462.73 			"/>
			<polygon points="1127.085,123.542 1127.085,114.244 969.446,114.244 969.446,123.542 969.446,577.859 909.225,577.859 
				909.225,587.158 1127.085,587.158 1127.085,577.859 1065.978,577.859 1065.978,123.542 			"/>
		</g>
	</g>
	<g id="Layer_3" display="none">
		<path display="inline" d="M415.941,355.572l122.214-231.587h-57.564v-9.299h126.642v9.299h-58.008L420.812,367.527
			L415.941,355.572z"/>
		<path display="inline" d="M628.93,123.542v454.317h61.107v9.299H557.195v-9.299h61.107V123.542H628.93z"/>
		<polygon display="inline" points="848.561,462.73 842.805,445.019 844.133,445.019 961.033,114.244 969.446,114.244 
			969.446,123.542 968.118,123.542 		"/>
	</g>
</g>
<g id="anim">
	
		<line id="y-line" fill="none" stroke="#000000" stroke-width="11" stroke-miterlimit="10" x1="415.333" y1="367.667" x2="546.667" y2="120.167"/>
	
		<line id="y-top" fill="none" stroke="#000000" stroke-width="9.5" stroke-miterlimit="10" x1="607.232" y1="119" x2="482.805" y2="119"/>
	
		<line id="m-vert" fill="none" stroke="#000000" stroke-width="11" stroke-miterlimit="10" x1="623.616" y1="123.542" x2="623.616" y2="580.5"/>
	
		<line id="m-bottom" fill="none" stroke="#000000" stroke-width="11" stroke-miterlimit="10" x1="557.195" y1="582.991" x2="690.037" y2="582.991"/>
	<polyline id="m-obl_2_" fill="none" stroke="#000000" stroke-width="11" stroke-miterlimit="10" points="969.446,119.562 
		964.176,119.562 839.312,472.75 	"/>
</g>
</svg>
